<?xml version="1.0" encoding="UTF-8"?>
<!-- Generator: Adobe Illustrator 22.0.1, SVG Export Plug-In . SVG Version: 6.00 Build 0)  -->
<svg preserveAspectRatio="xMidYMid slice" width="150px" height="100px" xmlns="http://www.w3.org/2000/svg" xmlns:xlink="http://www.w3.org/1999/xlink" id="Layer_1" x="0px" y="0px" viewBox="0 0 159.5 145" xml:space="preserve">
<polygon fill="#DBE5EF" points="14.5,110.8 85,104.3 77.7,32.8 8,38.8 "></polygon>
<g>
	<path fill="#981C1F" d="M100,92.2L99.9,92c-0.2-0.3-0.3-0.6-0.3-0.7c0-0.3,0.2-0.6,0.5-0.8c0.3-0.2,0.6-0.3,0.9-0.3   c0.1,0,0.3,0,0.4,0c0.2,0,0.3,0,0.3,0c1.9-0.3,3.3-0.4,4-0.4c1.5,0,2.6,0.3,3.4,1c0.8,0.7,1.3,1.5,1.3,2.5c0,1-0.4,1.9-1.2,2.7   s-1.9,1.6-3.3,2.1c2.3,1.9,4.1,3.2,5.3,3.9c0.4,0.3,0.6,0.6,0.6,1c0,0.3-0.1,0.5-0.4,0.8c-0.3,0.3-0.6,0.4-0.8,0.4   c-0.4,0-0.8-0.2-1.3-0.5c-0.5-0.3-1.2-0.8-2-1.5s-1.4-1.1-1.5-1.3c-1.2-1-2.1-1.7-2.7-2.1c-0.7,0-1-0.3-1-1c0-0.3,0.2-0.6,0.5-0.8   c0.3-0.2,0.7-0.3,1-0.3c0.1,0,0.2,0,0.4,0c0.1,0,0.2,0.1,0.3,0.1c0.4,0,1.2-0.3,2.3-1c1.1-0.7,1.7-1.5,1.7-2.4   c0-0.5-0.2-0.8-0.7-1.2c-0.5-0.3-1.1-0.5-1.8-0.5c-0.9,0-1.6,0.1-2.1,0.2c-0.5,0.1-0.8,0.2-0.9,0.2s-0.1,0.1-0.2,0.3   s-0.2,0.8-0.4,2c-0.2,1.2-0.4,2.5-0.6,3.9c-0.2,1.4-0.3,2.4-0.3,3.1c0,0.4,0,0.8,0.1,1.1c0.1,0.3,0.1,0.6,0.1,0.9   c0,0.2-0.1,0.5-0.4,0.8c-0.3,0.3-0.6,0.4-0.9,0.4c-0.9,0-1.4-0.6-1.4-1.9c0-1,0.1-2.4,0.3-4.3s0.5-3.4,0.8-4.8   c0-0.2,0.1-0.4,0.1-0.6L100,92.2z"></path>
	<path fill="#981C1F" d="M115.8,100.9c-0.1,0.3-0.5,0.9-1,1.8c-0.6,0.9-1,1.5-1.2,1.6c-0.2,0.1-0.4,0.2-0.6,0.2   c-0.2,0-0.5-0.1-0.8-0.4c-0.3-0.3-0.5-0.5-0.5-0.8c0-0.3,0.8-1.6,2.5-4.1c0.9-1.4,1.7-2.7,2.4-4c1.5-2.7,2.4-4.3,2.7-4.7   c0.3-0.4,0.7-0.7,1-0.7c0.6,0,1,0.1,1.2,0.4c0.1,0.1,0.2,0.3,0.2,0.7c0,0.3,0,0.5-0.1,0.6c1.2,3.6,2.1,6.2,2.8,7.7s1.3,2.6,2,3.3   c0.3,0.3,0.5,0.6,0.6,0.7c0.1,0.1,0.1,0.3,0.1,0.5c0,0.4-0.1,0.7-0.4,0.9c-0.3,0.2-0.6,0.4-0.9,0.4c-0.5,0-1-0.3-1.5-0.9   c-0.5-0.6-1-1.4-1.4-2.4c-0.5-1-0.7-1.6-0.7-1.7c0,0,0,0,0,0c-0.4,0-1.1,0.1-2.3,0.4c-1.2,0.2-2.2,0.5-2.9,0.7   c-0.2,0.1-0.4,0.1-0.5,0.1C116.1,101,115.9,101,115.8,100.9z M121.4,97.9c-0.2-0.4-0.6-1.8-1.4-4.1c-0.1-0.2-0.1-0.4-0.1-0.4   l-2.8,5.3c0.4-0.1,0.8-0.1,1.3-0.2c0.3,0,1-0.2,2.2-0.4C120.8,98,121.1,97.9,121.4,97.9z"></path>
	<path fill="#981C1F" d="M142.5,93.3l-3.3,4.4c-1.5,2.1-2.7,3.2-3.5,3.2c-0.4,0-0.7-0.2-1-0.6s-0.6-1.1-0.9-2   c-0.3-0.9-0.5-1.6-0.6-2c-0.3-1.1-0.5-1.7-0.6-1.8l-0.5,2.5c-0.2,0.8-0.3,1.6-0.5,2.3c-0.2,0.7-0.3,1.5-0.5,2.5   c-0.2,1-0.3,1.7-0.4,2.2c0,0.2-0.2,0.3-0.5,0.5c-0.3,0.2-0.5,0.3-0.7,0.3c-0.3,0-0.6-0.1-0.9-0.4c-0.3-0.3-0.4-0.6-0.4-0.8   c0-0.6,0.1-1.4,0.4-2.4c1.1-3.9,1.7-6.4,1.8-7.5c0.2-1,0.2-1.9,0.2-2.5c0-0.4,0.2-0.6,0.5-0.8c0.3-0.2,0.7-0.3,1.2-0.3   c0.3,0,0.5,0.2,0.8,0.5c0.3,0.4,0.4,0.7,0.5,1l0,0l1.4,3.8c0.5,1.5,0.9,2.5,1.1,2.9c0.7-0.8,1.7-2.1,3.1-4c1.4-1.9,2.3-3.1,2.8-3.6   s0.9-0.8,1.1-0.8c0.3,0,0.7,0.1,1.1,0.4s0.6,0.5,0.6,0.7c0,0.1-0.1,1.1-0.4,2.9c-0.2,1.3-0.3,2.7-0.5,4.3c-0.1,1.6-0.2,2.5-0.2,2.8   c0,0.4,0,0.7,0.1,1.1c0.1,0.3,0.1,0.6,0.1,0.8c0,0.6-0.1,1.1-0.3,1.3s-0.6,0.4-1,0.4c-0.9,0-1.3-0.6-1.3-1.9c0-1.2,0.1-2.7,0.3-4.4   c0.2-1.7,0.4-3.1,0.6-4C142.4,93.6,142.5,93.4,142.5,93.3z"></path>
</g>
<path fill="#981C1F" d="M98.5,50.7c-2.6-1.6-5.4-3-8.4-4c-1.5-0.6-3-1-4.5-1.4c-1.5-0.4-3.1-0.7-4.6-1c-3.1-0.5-6.3-0.7-9.5-0.5  c-3.2,0.1-6.4,0.6-9.5,1.5c-6.3,1.7-12.2,5-16.9,9.5c-4.8,4.5-8.4,10.2-10.3,16.6c-1.9,6.3-2.1,13.5,0.8,20.2c0.8,1.6,1.8,3.2,3,4.7  c1.3,1.4,2.7,2.6,4.3,3.5c1.6,0.9,3.3,1.6,5.1,2c0.4,0.1,0.9,0.2,1.3,0.3l1.3,0.2c0.9,0.2,1.7,0.2,2.6,0.3c3.4,0.2,6.7-0.3,9.9-1  c3.2-0.7,6.1-1.8,9-3c5.5-2.4,10.5-5.4,15.2-8.8c0.2,1.4,0.4,2.8,0.7,4.2c0.7,3.2,1.6,6.3,2.7,9.4c1.1,3,2.5,6,4.2,8.8  c0.1,0.2,0.3,0.3,0.5,0.2c0.3,0,0.5-0.3,0.4-0.6c-0.5-3.2-1.2-6.3-1.9-9.4c-0.6-3.1-1.3-6.2-1.9-9.2l-1.7-9.2  c-0.6-3.1-1.1-6.2-1.8-9.4c0-0.2-0.2-0.3-0.4-0.4c-0.3-0.1-0.5,0.1-0.6,0.4c-0.7,3.2-0.9,6.5-0.8,9.7c0,1.1,0.1,2.3,0.2,3.4  c-5.5,2.3-11.1,4.5-16.7,6C64.8,95.1,59,96,53.8,95.2c-2.6-0.4-5-1.2-6.9-2.4c-1-0.6-1.9-1.3-2.8-2c-0.8-0.8-1.6-1.7-2.3-2.7  c-0.6-1-1.1-2.1-1.5-3.3c-0.3-1.2-0.6-2.5-0.6-3.8c-0.1-2.6,0.2-5.3,1-7.9c1.6-5.2,4.6-10,8.7-13.8c4-3.8,8.9-6.5,14.3-8.1  c2.7-0.8,5.4-1.3,8.2-1.6c2.8-0.3,5.7-0.3,8.5-0.1c5.8,0.3,11.5,1.3,17.5,2.4l0,0c0.3,0,0.5-0.1,0.7-0.3  C98.9,51.3,98.8,50.9,98.5,50.7z"></path>
</svg>
